<?xml version="1.0" standalone="no"?>
<!DOCTYPE svg PUBLIC "-//W3C//DTD SVG 20010904//EN"
 "http://www.w3.org/TR/2001/REC-SVG-20010904/DTD/svg10.dtd">
<svg version="1.0" xmlns="http://www.w3.org/2000/svg"
 width="667.000000pt" height="236.000000pt" viewBox="0 0 667.000000 236.000000"
 preserveAspectRatio="xMidYMid meet">

<g transform="translate(0.000000,236.000000) scale(0.100000,-0.100000)"
fill="#000000" stroke="none">
<path d="M5293 1183 c15 -4 17 -20 17 -154 l0 -149 -30 0 -30 0 0 95 0 95 -52
-1 c-29 0 -47 -3 -40 -6 8 -3 12 -32 12 -93 0 -61 -4 -90 -12 -93 -7 -3 48 -5
122 -5 74 0 129 2 123 5 -10 3 -13 45 -13 159 l0 154 -57 -1 c-32 -1 -50 -3
-40 -6z"/>
<path d="M1682 1168 c-29 -29 -3 -72 40 -66 19 2 23 9 23 38 0 30 -4 35 -25
38 -14 2 -31 -3 -38 -10z"/>
<path d="M2702 1171 c-8 -4 -12 -21 -10 -37 2 -25 7 -29 32 -29 36 0 56 27 40
53 -13 19 -43 26 -62 13z"/>
<path d="M5182 1168 c-30 -30 0 -75 43 -64 19 5 25 13 25 35 0 38 -41 56 -68
29z"/>
<path d="M5452 1168 c-28 -28 -3 -72 39 -66 30 4 47 33 33 56 -14 21 -55 27
-72 10z"/>
<path d="M1393 1163 c15 -4 17 -19 17 -143 0 -124 -2 -139 -17 -143 -10 -3 20
-5 67 -4 47 0 73 2 58 4 -27 4 -28 7 -28 58 l0 53 44 6 c62 10 96 38 96 82 0
75 -36 95 -169 93 -47 -1 -78 -3 -68 -6z m145 -71 c3 -64 -7 -92 -34 -92 -11
0 -14 19 -14 81 0 78 1 80 23 77 20 -3 22 -9 25 -66z"/>
<path d="M3133 1163 c15 -4 17 -19 17 -143 0 -124 -2 -139 -17 -143 -10 -3 20
-5 67 -6 47 0 102 4 122 9 78 22 117 122 82 209 -25 62 -70 81 -194 80 -52 -1
-87 -3 -77 -6z m172 -23 c20 -22 32 -126 21 -185 -9 -44 -38 -75 -71 -75 l-25
0 0 140 0 140 28 0 c16 0 37 -9 47 -20z"/>
<path d="M3768 1163 c9 -3 12 -42 12 -143 0 -101 -3 -140 -12 -144 -7 -3 32
-4 87 -3 158 5 202 43 193 169 -5 67 -31 102 -87 118 -36 10 -217 13 -193 3z
m172 -23 c17 -17 20 -33 20 -111 0 -114 -16 -148 -67 -149 -23 0 -23 1 -23
140 l0 140 25 0 c14 0 34 -9 45 -20z"/>
<path d="M4908 1163 c9 -3 12 -42 12 -143 0 -101 -3 -140 -12 -143 -7 -3 37
-6 98 -6 124 -1 124 -1 123 74 0 28 -1 28 -12 10 -25 -41 -66 -75 -91 -75
l-26 0 0 139 0 140 28 4 c15 2 -9 4 -53 5 -44 0 -74 -2 -67 -5z"/>
<path d="M2260 1068 c-15 -8 -26 -24 -28 -40 -3 -22 2 -29 22 -34 37 -9 49 3
41 43 -5 30 -4 34 12 31 14 -2 19 -14 21 -51 l3 -47 -33 0 c-19 0 -44 -7 -56
-16 -28 -20 -30 -69 -3 -84 25 -13 68 -13 76 0 3 6 1 10 -5 10 -15 0 -8 72 8
78 8 2 12 -9 12 -37 0 -44 18 -61 63 -61 29 0 40 9 28 24 -5 6 -11 46 -13 88
-2 43 -9 83 -15 89 -18 18 -104 22 -133 7z"/>
<path d="M2586 1073 c-4 -4 -38 -7 -74 -6 -37 1 -59 -1 -49 -3 14 -5 17 -18
17 -94 0 -76 -2 -89 -17 -93 -10 -3 14 -5 52 -6 40 0 64 3 57 8 -21 13 -12
161 10 175 9 5 21 6 25 2 4 -5 2 -11 -4 -13 -21 -7 -15 -41 7 -48 27 -9 50 11
50 41 0 15 6 24 15 24 12 0 15 -17 15 -89 0 -62 -4 -91 -12 -94 -7 -3 16 -5
52 -5 36 0 59 2 53 5 -9 3 -13 33 -13 100 l0 94 -60 -2 c-33 -1 -63 1 -67 4
-9 9 -48 9 -57 0z"/>
<path d="M2843 1068 c-39 -19 -34 -78 6 -78 29 0 47 28 33 50 -12 19 -7 30 15
30 9 0 13 -15 13 -50 0 -46 -2 -50 -24 -50 -39 0 -74 -17 -81 -39 -15 -47 41
-85 92 -62 18 8 29 9 37 1 11 -11 46 -13 70 -4 14 5 14 8 1 21 -11 10 -15 37
-15 88 0 65 -3 76 -22 89 -25 18 -92 20 -125 4z m67 -148 c0 -40 -15 -54 -26
-25 -8 20 4 65 16 65 6 0 10 -18 10 -40z"/>
<path d="M3483 1068 c-44 -21 -36 -83 10 -76 25 4 48 38 30 45 -21 7 -15 33 7
33 17 0 20 -7 20 -49 l0 -48 -42 -6 c-70 -9 -91 -66 -36 -97 23 -12 33 -13 60
-2 21 8 36 8 42 2 12 -12 56 -13 74 -1 11 7 11 9 -2 14 -13 5 -16 23 -16 86 0
71 -2 82 -22 95 -25 18 -92 20 -125 4z m67 -148 c0 -40 -15 -54 -26 -25 -8 20
4 65 16 65 6 0 10 -18 10 -40z"/>
<path d="M4127 1064 c-51 -28 -65 -122 -24 -169 29 -35 99 -45 145 -21 64 33
66 161 2 193 -34 17 -89 16 -123 -3z m81 -92 c2 -78 0 -93 -14 -99 -25 -9 -34
15 -34 94 0 83 6 105 29 101 13 -3 17 -20 19 -96z"/>
<path d="M4446 1073 c-4 -4 -37 -7 -74 -6 -37 1 -61 0 -54 -3 8 -4 12 -33 12
-94 0 -61 -4 -90 -12 -93 -7 -3 16 -6 52 -6 40 0 60 3 51 8 -20 13 -11 145 12
168 16 16 19 16 27 3 15 -23 13 -167 -2 -173 -7 -3 16 -5 52 -5 36 0 59 2 53
5 -9 3 -13 27 -13 68 0 66 -13 114 -33 127 -15 10 -61 10 -71 1z"/>
<path d="M4623 1070 c-42 -17 -37 -80 7 -80 26 0 46 28 32 42 -18 18 -14 38 8
38 17 0 20 -7 20 -50 0 -50 0 -50 -33 -50 -65 0 -101 -56 -59 -93 20 -19 67
-23 77 -7 3 6 1 10 -5 10 -15 0 -8 72 8 78 8 2 12 -9 12 -37 0 -44 18 -61 64
-61 27 0 43 15 26 25 -5 3 -10 40 -10 81 0 61 -4 78 -20 94 -21 21 -86 26
-127 10z"/>
<path d="M5603 1071 c-26 -12 -39 -47 -23 -66 29 -35 80 -1 57 36 -13 21 -4
34 18 26 10 -5 15 -20 15 -52 0 -44 -1 -45 -33 -45 -64 0 -100 -55 -61 -94 17
-18 69 -22 79 -6 3 6 1 10 -5 10 -15 0 -8 72 8 78 8 2 12 -9 12 -37 0 -30 5
-43 19 -51 29 -15 67 -12 81 6 11 12 11 15 -1 12 -11 -2 -15 15 -19 79 -3 45
-10 87 -17 94 -15 15 -102 22 -130 10z"/>
<path d="M1658 1063 c8 -3 12 -32 12 -93 0 -61 -4 -90 -12 -93 -7 -3 16 -5 52
-5 36 0 59 2 53 5 -9 3 -13 33 -13 99 l0 94 -52 -1 c-29 0 -47 -3 -40 -6z"/>
<path d="M1807 1063 c-4 -3 -7 -20 -7 -37 l1 -31 15 27 c13 26 51 44 72 36 6
-1 -12 -41 -39 -88 -27 -47 -49 -88 -49 -92 0 -5 41 -8 90 -8 l90 0 0 36 0 36
-26 -31 c-14 -17 -34 -31 -45 -31 -24 0 -24 2 7 58 15 26 38 66 51 90 l24 42
-89 0 c-49 0 -92 -3 -95 -7z"/>
<path d="M2015 1039 c-9 -39 -2 -46 15 -14 13 24 48 41 69 33 5 -1 -11 -39
-36 -83 -25 -44 -47 -86 -50 -92 -4 -10 17 -13 86 -13 l91 0 0 38 -1 37 -15
-27 c-8 -15 -26 -31 -40 -34 -29 -7 -41 0 -27 18 5 7 29 48 52 91 l42 77 -90
0 -89 0 -7 -31z"/>
<path d="M5428 1063 c8 -3 12 -32 12 -93 0 -61 -4 -90 -12 -93 -7 -3 19 -5 57
-5 39 0 62 2 53 5 -16 4 -18 17 -18 99 l0 94 -52 -1 c-29 0 -47 -3 -40 -6z"/>
</g>
</svg>
